<?xml version="1.0" encoding="UTF-8"?>
<svg id="_Слой_1" data-name="Слой 1" xmlns="http://www.w3.org/2000/svg" viewBox="0 0 996.47 995.57">
  <defs>
    <style>
      .cls-1 {
        fill: #fff;
      }
    </style>
  </defs>
  <path d="M449.38,2.67c398.75-35.58,678.15,385.43,483.2,737.81-187.42,338.77-682.06,338.77-869.48,0C-109.36,428.75,94.31,34.35,449.38,2.67ZM705.11,210.94c-2.2-2.36-31.56,28.2-46.33,24.27-8.18-2.17-46.94-36.51-65.1-45.17-59.63-28.45-133.16-29.11-193.18-1.49-42.13,19.39-65.37,70.52-107.52,27.42-13.79-4.48,29.14,53.07,32.65,57.26,17.14,20.42,110.22,101.77,132.16,100.63,5.81-.3,19.28-12.77,35.24-13.3,39.09-1.29,28.48,23.2,77.88-6.63,52.11-31.47,109.19-86.83,134.2-142.98ZM410.44,450.72c-43.94-2.64-87.09-28.46-85.42-77.52.61-17.76,11.68-27.09,9.74-43.77l-29.34-35.85c-.33-6.43-5.22-.26-7.21,2.47-41.73,57.18-22.98,160.26-27.48,227.26-4.24,63.14-24.21,124.98-50.11,182.1l68.04-54.6c12.26-2.23,49.48,70.79,56.88,84.57l64.77-49.91,82.58,139.87c7,1.52,8.37-4.11,11.61-8.38,27.35-36.02,52.53-91.43,76.01-131.31,13.27-9.13,50.23,41.54,62.2,49.63,11.92-10.87,47.62-87.35,59.5-84.57l67.84,54.7c-25.4-59.37-45.95-121.97-50.12-187.09-4.86-75.97,16.06-161.12-32.29-227.44l-31.23,43.27c27.66,66.21-7.84,112-76.19,116.58l5.83,34.13,69.04,38.24c0,3.71-53.21,30.03-62.34,37.47-53.85,43.92-75.17,154.77-92.46,219.77-13.22,1.46-7.89-.29-10.04-7.38-16.01-52.69-43.46-172.63-83.67-207.49-18.42-15.97-51.88-25.82-71.09-42.4-1.74-3.54,66.83-35.07,68.97-38.39,3.11-4.81,1.72-25.74,5.98-33.97ZM435.38,400.8l-69.87-40.01c-19.64,42.68,41.73,67.21,69.87,40.01ZM555.3,400.8c13.88,19.6,57.76,12.19,69.33-8.13,5.47-9.6,12-35.87-7.67-27.77-20.31,8.37-38.46,32.47-61.66,35.9ZM500.31,660.47c8.16-52.66,33.6-107.69,79.86-137.37-54.33-20.01-21.93-63.79-47.62-102.13-32.09-47.88-80.07-14.23-86.74,32.63-5.48,38.53,10.53,48.32-35.3,69.5,48.25,29.13,64.48,79.39,79.75,130,2.15,7.13-3.13,8.82,10.05,7.37Z"/>
  <path class="cls-1" d="M410.44,450.72c-4.25,8.23-2.87,29.16-5.98,33.97-2.14,3.32-70.71,34.85-68.97,38.39,19.22,16.58,52.67,26.43,71.09,42.4,40.21,34.86,67.66,154.81,83.67,207.49,2.15,7.09-3.17,8.84,10.04,7.38,17.3-65,38.62-175.85,92.46-219.77,9.12-7.44,62.33-33.76,62.34-37.47l-69.04-38.24-5.83-34.13c68.35-4.59,103.85-50.37,76.19-116.58l31.23-43.27c48.35,66.32,27.43,151.47,32.29,227.44,4.17,65.12,24.72,127.71,50.12,187.09l-67.84-54.7c-11.88-2.78-47.59,73.71-59.5,84.57-11.97-8.1-48.93-58.77-62.2-49.63-23.48,39.88-48.67,95.29-76.01,131.31-3.24,4.27-4.6,9.9-11.61,8.38l-82.58-139.87-64.77,49.91c-7.4-13.78-44.63-86.79-56.88-84.57l-68.04,54.6c25.9-57.11,45.87-118.95,50.11-182.1,4.5-67-14.25-170.08,27.48-227.26,1.99-2.72,6.88-8.9,7.21-2.47l29.34,35.85c1.94,16.68-9.13,26.01-9.74,43.77-1.68,49.05,41.47,74.87,85.42,77.52Z"/>
  <path class="cls-1" d="M705.11,210.94c-25.01,56.15-82.09,111.52-134.2,142.98-49.41,29.84-38.79,5.34-77.88,6.63-15.96.53-29.43,12.99-35.24,13.3-21.94,1.14-115.02-80.21-132.16-100.63-3.52-4.19-46.45-61.74-32.65-57.26,42.16,43.1,65.39-8.03,107.52-27.42,60.01-27.62,133.55-26.95,193.18,1.49,18.16,8.67,56.92,43,65.1,45.17,14.77,3.92,44.13-26.63,46.33-24.27Z"/>
  <path class="cls-1" d="M500.31,660.47c-13.18,1.45-7.9-.24-10.05-7.37-15.27-50.61-31.5-100.87-79.75-130,45.83-21.18,29.82-30.97,35.3-69.5,6.66-46.87,54.65-80.51,86.74-32.63,25.69,38.34-6.71,82.12,47.62,102.13-46.26,29.68-71.71,84.7-79.86,137.37Z"/>
  <path class="cls-1" d="M435.38,400.8c-28.14,27.21-89.51,2.67-69.87-40.01l69.87,40.01Z"/>
  <path class="cls-1" d="M555.3,400.8c23.2-3.43,41.35-27.53,61.66-35.9,19.67-8.1,13.13,18.17,7.67,27.77-11.57,20.32-55.45,27.73-69.33,8.13Z"/>
</svg>