  <svg
viewbox="0 0 496 512"
xmlns="http://www.w3.org/2000/svg"
>
<path
d="M449.38,2.67c398.75-35.58,678.15,385.43,483.2,737.81-187.42,338.77-682.06,338.77-869.48,0C-109.36,428.75,94.31,34.35,449.38,2.67ZM705.11,210.94c-2.2-2.36-31.56,28.2-46.33,24.27-8.18-2.17-46.94-36.51-65.1-45.17-59.63-28.45-133.16-29.11-193.18-1.49-42.13,19.39-65.37,70.52-107.52,27.42-13.79-4.48,29.14,53.07,32.65,57.26,17.14,20.42,110.22,101.77,132.16,100.63,5.81-.3,19.28-12.77,35.24-13.3,39.09-1.29,28.48,23.2,77.88-6.63,52.11-31.47,109.19-86.83,134.2-142.98ZM410.44,450.72c-43.94-2.64-87.09-28.46-85.42-77.52.61-17.76,11.68-27.09,9.74-43.77l-29.34-35.85c-.33-6.43-5.22-.26-7.21,2.47-41.73,57.18-22.98,160.26-27.48,227.26-4.24,63.14-24.21,124.98-50.11,182.1l68.04-54.6c12.26-2.23,49.48,70.79,56.88,84.57l64.77-49.91,82.58,139.87c7,1.52,8.37-4.11,11.61-8.38,27.35-36.02,52.53-91.43,76.01-131.31,13.27-9.13,50.23,41.54,62.2,49.63,11.92-10.87,47.62-87.35,59.5-84.57l67.84,54.7c-25.4-59.37-45.95-121.97-50.12-187.09-4.86-75.97,16.06-161.12-32.29-227.44l-31.23,43.27c27.66,66.21-7.84,112-76.19,116.58l5.83,34.13,69.04,38.24c0,3.71-53.21,30.03-62.34,37.47-53.85,43.92-75.17,154.77-92.46,219.77-13.22,1.46-7.89-.29-10.04-7.38-16.01-52.69-43.46-172.63-83.67-207.49-18.42-15.97-51.88-25.82-71.09-42.4-1.74-3.54,66.83-35.07,68.97-38.39,3.11-4.81,1.72-25.74,5.98-33.97ZM435.38,400.8l-69.87-40.01c-19.64,42.68,41.73,67.21,69.87,40.01ZM555.3,400.8c13.88,19.6,57.76,12.19,69.33-8.13,5.47-9.6,12-35.87-7.67-27.77-20.31,8.37-38.46,32.47-61.66,35.9ZM500.31,660.47c8.16-52.66,33.6-107.69,79.86-137.37-54.33-20.01-21.93-63.79-47.62-102.13-32.09-47.88-80.07-14.23-86.74,32.63-5.48,38.53,10.53,48.32-35.3,69.5,48.25,29.13,64.48,79.39,79.75,130,2.15,7.13-3.13,8.82,10.05,7.37Z"
></path>
</svg>