<?xml version="1.0" encoding="UTF-8"?><svg id="a" xmlns="http://www.w3.org/2000/svg" width="496" height="512" viewBox="0 0 496 512"><path d="M226.74,13.15c177.06-14.27,309.77,156.29,251.08,324.59-63.94,183.35-308.99,219.74-425.57,64.06C-61.59,249.77,38.4,28.33,226.74,13.15ZM330.14,117.81l-84.13-41.14c-23.31,14.05-49.23,23.93-72.75,37.46-2.66,1.53-5.96-.25-4.85,4.84l53.09,25.21c6.62.6,19.29-11.53,26.56-11.53,7.34,0,19.63,11.9,26.96,11.9,3.32,0,57.28-23.97,55.12-26.75ZM87.57,158.21v99.24l49.01-19.6v-53.91l55.28,26.88c17.5-5.18,38.57-12.67,52.52-24.4l-107.62-52.78-49.19,24.57ZM148.83,333.37l257.3-116.33c3.42-3.87,3.93-55.65,1.23-60.09l-41.69-19.72-55.12,22.24c-1.36,5.83,1.05,3.95,3.19,5.43,3.82,2.65,35.47,16.7,31.11,21.47l-254.86,111.47c-3.47,3.89-3.48,46.17-2.56,54.08.53,4.53.25,5.22,4.07,8.18,2.88,2.23,33.93,17.09,36.45,17.15l55.19-21.82c1.39-5.64-1.11-4.02-3.1-5.58-8.28-6.52-21.7-11.34-31.21-16.47ZM408.55,357.91v-102.91l-49.01,23.28v52.68l-55.49-28.76c-2.68-.25-46.38,17.76-49.9,20.16-4.09,2.79-1.33,3.91,1.59,5.82,29.9,19.52,71.98,32.43,103.16,51.38l49.65-21.64ZM165.99,397.08l82.07,39.05,82.04-40.25-48.13-25.18c-9.45.68-25.91,13.48-33.93,13.15-8.14-.33-20.72-14.97-31.22-10.8l-50.82,24.03Z"/><path d="M148.83,333.37c9.51,5.13,22.92,9.96,31.21,16.47,1.99,1.57,4.49-.06,3.1,5.58l-55.19,21.82c-2.52-.06-33.56-14.91-36.45-17.15-3.82-2.96-3.54-3.65-4.07-8.18-.92-7.91-.91-50.19,2.56-54.08l254.86-111.47c4.36-4.77-27.29-18.82-31.11-21.47-2.13-1.48-4.55.4-3.19-5.43l55.12-22.24,41.69,19.72c2.7,4.44,2.19,56.22-1.23,60.09l-257.3,116.33Z" fill="#fff"/><path d="M408.55,357.91l-49.65,21.64c-31.18-18.95-73.26-31.86-103.16-51.38-2.92-1.9-5.68-3.03-1.59-5.82,3.52-2.4,47.22-20.41,49.9-20.16l55.49,28.76v-52.68l49.01-23.28v102.91Z" fill="#fff"/><path d="M87.57,158.21l49.19-24.57,107.62,52.78c-13.95,11.73-35.03,19.22-52.52,24.4l-55.28-26.88v53.91l-49.01,19.6v-99.24Z" fill="#fff"/><path d="M330.14,117.81c2.16,2.78-51.8,26.75-55.12,26.75-7.33,0-19.61-11.9-26.96-11.9-7.26,0-19.94,12.13-26.56,11.53l-53.09-25.21c-1.11-5.09,2.2-3.31,4.85-4.84,23.51-13.53,49.43-23.41,72.75-37.46l84.13,41.14Z" fill="#fff"/><path d="M165.99,397.08l50.82-24.03c10.51-4.17,23.08,10.47,31.22,10.8,8.02.32,24.48-12.47,33.93-13.15l48.13,25.18-82.04,40.25-82.07-39.05Z" fill="#fff"/></svg>