<?xml version="1.0" encoding="UTF-8"?>
<svg id="_Слой_2" data-name="Слой 2" xmlns="http://www.w3.org/2000/svg" viewBox="0 0 996.47 995.57">
  <defs>
    <style>
      .cls-1 {
        fill: #fff;
      }
    </style>
  </defs>
  <path d="M454.8,1.71c361.69-29.15,632.79,319.25,512.9,663.06-130.61,374.54-631.19,448.88-869.34,130.85C-134.19,485.06,70.08,32.72,454.8,1.71ZM666.02,215.5l-171.85-84.03c-47.62,28.7-100.57,48.89-148.61,76.53-5.43,3.12-12.18-.5-9.91,9.89l108.45,51.51c13.52,1.22,39.41-23.56,54.25-23.56,15,0,40.09,24.31,55.06,24.3,6.78,0,117-48.96,112.6-54.64ZM170.51,298.03v202.71l100.11-40.04v-110.12l112.92,54.91c35.74-10.58,78.79-25.89,107.3-49.85l-219.83-107.81-100.49,50.19ZM295.65,655.84l525.6-237.63c6.99-7.91,8.03-113.68,2.51-122.75l-85.16-40.29-112.59,45.43c-2.78,11.91,2.15,8.06,6.51,11.08,7.81,5.41,72.45,34.12,63.55,43.86l-520.61,227.71c-7.1,7.95-7.11,94.32-5.23,110.47,1.08,9.25.52,10.67,8.31,16.71,5.89,4.56,69.31,34.92,74.45,35.03l112.74-44.58c2.84-11.53-2.26-8.21-6.32-11.41-16.92-13.32-44.32-23.17-63.74-33.65ZM826.2,705.96v-210.22l-100.11,47.55v107.61l-113.35-58.76c-5.47-.51-94.74,36.28-101.93,41.18-8.35,5.7-2.71,8,3.25,11.89,61.08,39.88,147.03,66.25,210.73,104.96l101.42-44.21ZM330.71,785.98l167.64,79.78,167.58-82.22-98.33-51.44c-19.31,1.39-52.92,27.53-69.3,26.87-16.63-.67-42.32-30.57-63.78-22.07l-103.8,49.08Z"/>
  <path class="cls-1" d="M295.65,655.84c19.42,10.48,46.82,20.34,63.74,33.65,4.06,3.2,9.16-.12,6.32,11.41l-112.74,44.58c-5.14-.12-68.56-30.47-74.45-35.03-7.8-6.04-7.24-7.47-8.31-16.71-1.88-16.15-1.87-102.52,5.23-110.47l520.61-227.71c8.9-9.74-55.74-38.45-63.55-43.86-4.35-3.02-9.29.83-6.51-11.08l112.59-45.43,85.16,40.29c5.52,9.07,4.48,114.84-2.51,122.75l-525.6,237.63Z"/>
  <path class="cls-1" d="M826.2,705.96l-101.42,44.21c-63.69-38.7-149.65-65.08-210.73-104.96-5.96-3.89-11.6-6.19-3.25-11.89,7.19-4.9,96.46-41.69,101.93-41.18l113.35,58.76v-107.61l100.11-47.55v210.22Z"/>
  <path class="cls-1" d="M170.51,298.03l100.49-50.19,219.83,107.81c-28.5,23.96-71.56,39.26-107.3,49.85l-112.92-54.91v110.12l-100.11,40.04v-202.71Z"/>
  <path class="cls-1" d="M666.02,215.5c4.4,5.68-105.82,54.64-112.6,54.64-14.97,0-40.07-24.3-55.06-24.3-14.84,0-40.74,24.78-54.25,23.56l-108.45-51.51c-2.27-10.4,4.49-6.77,9.91-9.89,48.03-27.64,100.98-47.83,148.61-76.53l171.85,84.03Z"/>
  <path class="cls-1" d="M330.71,785.98l103.8-49.08c21.47-8.51,47.15,21.4,63.78,22.07,16.38.66,50-25.48,69.3-26.87l98.33,51.44-167.58,82.22-167.64-79.78Z"/>
</svg>